<?xml version="1.0" encoding="utf-8"?>
<!-- Generator: Adobe Illustrator 21.1.0, SVG Export Plug-In . SVG Version: 6.00 Build 0)  -->
<svg version="1.1" id="Layer_1" xmlns="http://www.w3.org/2000/svg" xmlns:xlink="http://www.w3.org/1999/xlink" x="0px" y="0px"
	 viewBox="0 0 1000 1000" style="enable-background:new 0 0 1000 1000;" xml:space="preserve">
<style type="text/css">
	.st0{fill:#FFFFFF;}
</style>
<g id="Secondary_Logo_2_">
	<g>
		<path class="st0" d="M196.5,806.9c-2,0-3.1,1.6-3.1,3.1v164.1L59.2,809.3l-0.5-0.6c-1-1.2-1.5-1.9-2.9-1.9c-2,0-3.1,1.6-3.1,3.1
			v172.8c0,1.5,1.2,3.1,3.1,3.1c2,0,3.1-1.6,3.1-3.1V819l134,164.6c1.2,1.4,2,2.4,3.6,2.4c1.9,0,3.1-1.3,3.1-3.1V810
			C199.7,808.5,198.5,806.9,196.5,806.9z"/>
		<path class="st0" d="M383.8,806.9c-23.7,0-46,9.5-62.9,26.9c-16.7,17.1-25.9,39.5-25.9,62.9c0,23.4,9.2,45.7,25.9,62.7
			c16.9,17.2,39.2,26.6,62.9,26.6c23.7,0,46.1-9.5,63.1-26.7c16.8-17,26-39.3,26-62.6c0-23.1-9.5-46.1-26-62.9
			C429.9,816.4,407.5,806.9,383.8,806.9z M466.5,896.7c0,21.9-8.6,42.7-24.1,58.6c-15.7,16.1-36.6,24.9-58.7,24.9
			c-22,0-42.8-8.8-58.5-24.8c-15.5-15.9-24.1-36.7-24.1-58.7c0-21.9,8.5-42.8,24.1-58.7c15.7-16.2,36.5-25.1,58.5-25.1
			c22.1,0,42.9,8.9,58.7,25.1C458,853.9,466.5,874.8,466.5,896.7z"/>
		<path class="st0" d="M693.8,806.9c-2.2,0-2.9,1.8-3.3,2.7l-68.2,165.8l-68.2-165.8c-0.4-1-1.1-2.7-3.3-2.7c-1.7,0-2.9,1.3-2.9,3.1
			c0,0.6,0.3,1.2,0.5,1.9c0.1,0.3,0.2,0.5,0.3,0.8L619,983.3c0.4,1,1.1,2.7,3.3,2.7c2.2,0,2.9-1.8,3.3-2.7l70.3-170.6
			c0.1-0.2,0.2-0.5,0.3-0.8c0.3-0.7,0.5-1.3,0.5-1.9C696.7,808.2,695.5,806.9,693.8,806.9z"/>
		<path class="st0" d="M921.4,833.7c-17-17.3-39.4-26.9-63.1-26.9c-23.7,0-46,9.5-62.9,26.9c-16.7,17.1-25.9,39.5-25.9,62.9
			c0,23.4,9.2,45.7,25.9,62.7c16.9,17.2,39.2,26.6,62.9,26.6c23.7,0,46.1-9.5,63.1-26.7c16.8-17,26-39.3,26-62.6
			C947.4,873.6,937.9,850.6,921.4,833.7z M941.1,896.7c0,21.9-8.6,42.7-24.1,58.6c-15.7,16.1-36.6,24.9-58.7,24.9
			c-22,0-42.8-8.8-58.5-24.8c-15.5-15.9-24.1-36.7-24.1-58.7c0-21.9,8.5-42.8,24.1-58.7c15.7-16.2,36.5-25.1,58.5-25.1
			c22.1,0,42.9,8.9,58.7,25.1C932.5,853.9,941.1,874.8,941.1,896.7z"/>
	</g>
	<path class="st0" d="M696.4,449.5v-430c0-2.4-1.6-4.5-3.9-5.3c-0.5-0.2-1.1-0.2-1.6-0.2H690l-0.6,0.6c-0.4,0.3-40.7,36.3-76.4,68.5
		c-27.5,24.7-44.6,40.4-50.9,46.5c-3.4,3.6-3.4,7.6-3.4,8.3v157l-156-173.3c-1.2-1.3-3-2.1-4.8-2c-1.4,0-2.8,0.6-3.8,1.5l-93.3,84
		c-0.7,0.6-1.2,1.4-1.6,2.2h-0.2l-0.1,0.6c-0.1,0.5-0.2,1-0.2,1.4v430.2c0,2.4,1.6,4.5,3.9,5.3c0.5,0.2,1.1,0.2,1.6,0.2h0.9l0.6-0.6
		c0.4-0.3,40.8-36.4,76.4-68.5c27.5-24.8,44.6-40.4,50.9-46.5c3.4-3.6,3.4-7.6,3.4-8.3V364.8l156.2,173.5c2.1,2.4,6.2,2.6,8.5,0.4
		l93.3-84c1.2-1.1,1.9-2.6,2-4.2C696.4,450.2,696.4,449.8,696.4,449.5z M563.2,137.6c0-0.4,0-2.7,2.1-4.9c0.8-0.8,1.8-1.8,3-2.9
		c0.8-0.7,1.6-1.5,2.6-2.4c15.2-14.1,48.9-44.5,74.5-67.4l14.8-13.3c15.7-14.1,28-25,31.3-28c0.1,0.1,0.2,0.2,0.3,0.3
		c0.1,0.1,0.1,0.3,0.1,0.5v261.1L563.2,137.6z M691.9,304.3v138.5L567.1,304.3H691.9z M563.2,299.8V144.4l128.7,142.9v12.5H563.2z
		 M563.5,450.4c-0.2-0.2-0.3-0.4-0.3-0.7V306.7l128.3,142.5c0.3,0.3,0.4,0.7,0.4,1.1s-0.2,0.8-0.5,1.1l-93.3,84
		c-0.6,0.6-1.6,0.5-2.2-0.1L563.2,499v-47.3h1.6L563.5,450.4z M562.4,137.7L562.4,137.7L562.4,137.7L562.4,137.7z M544,285.3
		l-95.6,86.1l-11.9-13.2V165.9L544,285.3z M558.7,301.7V494L451.3,374.8l95.6-86.1L558.7,301.7z M398.2,123.4L398.2,123.4l0,0.8
		c0.4,0,0.7,0.2,1,0.5l32.7,36.3v47.9l-0.1,0.1v144.1L303.7,210.8c-0.3-0.3-0.4-0.7-0.4-1.1c0-0.4,0.2-0.8,0.5-1.1l93.3-84
		c0.3-0.3,0.7-0.4,1.1-0.4L398.2,123.4z M303.1,371.9v-12.5h128.2l0.5,0.5v154.9L303.1,371.9z M303.1,354.9V217l124.2,137.9H303.1z
		 M431.8,521.5c0,0.4,0,2.7-2.1,4.9c-0.8,0.8-1.8,1.8-3,2.9l-2.6,2.4c-15.3,14.2-49,44.5-74.5,67.4l-14.8,13.3
		c-15.7,14.1-28,25-31.3,28c-0.1-0.1-0.2-0.2-0.3-0.3c-0.1-0.1-0.1-0.3-0.1-0.5V378.6L431.8,521.5z"/>
</g>
</svg>
