<?xml version="1.0" encoding="utf-8"?>
<!-- Generator: Adobe Illustrator 21.1.0, SVG Export Plug-In . SVG Version: 6.00 Build 0)  -->
<svg version="1.1" id="Layer_1" xmlns="http://www.w3.org/2000/svg" xmlns:xlink="http://www.w3.org/1999/xlink" x="0px" y="0px"
	 viewBox="0 0 820 900" style="enable-background:new 0 0 820 900;" xml:space="preserve">
<style type="text/css">
	.st0{fill:#FFFFFF;}
</style>
<g id="Secondary_Logo_2_">
	<g>
		<path class="st0" d="M139.3,723.7c-1.8,0-2.8,1.4-2.8,2.8v146.4l-119.7-147l-0.4-0.5c-0.8-1-1.4-1.7-2.6-1.7
			c-1.8,0-2.8,1.4-2.8,2.8v154.2c0,1.4,1,2.8,2.8,2.8s2.8-1.4,2.8-2.8V734.5l119.5,146.8c1,1.3,1.8,2.2,3.2,2.2
			c1.7,0,2.8-1.1,2.8-2.8V726.5C142.1,725.1,141.1,723.7,139.3,723.7z"/>
		<path class="st0" d="M306.3,723.7c-21.1,0-41.1,8.5-56.1,24c-14.9,15.3-23.1,35.2-23.1,56.1c0,20.9,8.2,40.8,23.1,55.9
			c15,15.3,35,23.7,56.1,23.7c21.1,0,41.1-8.5,56.2-23.8c15-15.2,23.2-35,23.2-55.8c0-20.6-8.5-41.1-23.2-56.1
			C347.4,732.2,327.5,723.7,306.3,723.7z M380.2,803.8c0,19.5-7.6,38.1-21.5,52.3c-14,14.3-32.6,22.2-52.3,22.2
			c-19.7,0-38.2-7.9-52.1-22.2c-13.8-14.2-21.5-32.8-21.5-52.3c0-19.5,7.6-38.1,21.5-52.4c14-14.4,32.5-22.3,52.1-22.3
			c19.7,0,38.3,7.9,52.3,22.3C372.5,765.6,380.2,784.2,380.2,803.8z"/>
		<path class="st0" d="M582.9,723.7c-2,0-2.6,1.6-3,2.4L519.1,874l-60.8-147.8c-0.3-0.8-1-2.4-3-2.4c-1.5,0-2.6,1.2-2.6,2.8
			c0,0.5,0.2,1.1,0.5,1.7c0.1,0.2,0.2,0.5,0.3,0.7L516.1,881c0.3,0.8,1,2.4,3,2.4c2,0,2.6-1.6,3-2.4l62.7-152.2
			c0.1-0.2,0.2-0.4,0.3-0.7c0.2-0.6,0.5-1.2,0.5-1.7C585.4,724.9,584.4,723.7,582.9,723.7z"/>
		<path class="st0" d="M785.8,747.6c-15.1-15.5-35.1-24-56.2-24c-21.1,0-41.1,8.5-56.1,24c-14.9,15.3-23.1,35.2-23.1,56.1
			c0,20.9,8.2,40.8,23.1,55.9c15,15.3,35,23.7,56.1,23.7c21.1,0,41.1-8.5,56.2-23.8c15-15.2,23.2-35,23.2-55.8
			C809,783.2,800.5,762.7,785.8,747.6z M803.4,803.8c0,19.5-7.6,38.1-21.5,52.3c-14,14.3-32.6,22.2-52.3,22.2
			c-19.7,0-38.2-7.9-52.1-22.2C663.6,842,656,823.4,656,803.8c0-19.5,7.6-38.1,21.5-52.4c14-14.4,32.5-22.3,52.1-22.3
			c19.7,0,38.3,7.9,52.3,22.3C795.8,765.6,803.4,784.2,803.4,803.8z"/>
	</g>
	<path class="st0" d="M585.1,404.9V21.5c0-2.2-1.4-4-3.4-4.7c-0.5-0.1-1-0.2-1.5-0.2h-0.8l-0.6,0.5c-0.3,0.3-36.3,32.4-68.2,61.1
		c-24.5,22.1-39.8,36-45.4,41.5c-3.1,3.2-3,6.8-3,7.4v140L323.2,112.5c-1.1-1.2-2.6-1.8-4.2-1.8c-1.3,0-2.5,0.5-3.4,1.4l-83.2,75
		c-0.6,0.5-1.1,1.2-1.4,2h-0.2l-0.1,0.5c-0.1,0.4-0.2,0.8-0.2,1.3v383.7c0,2.2,1.4,4,3.4,4.7c0.5,0.1,1,0.2,1.5,0.2h0.8l0.6-0.5
		c0.3-0.3,36.4-32.5,68.2-61.1c24.5-22.1,39.8-36,45.4-41.5c3.1-3.2,3-6.8,3-7.4V329.4l139.3,154.7c1.9,2.1,5.5,2.3,7.6,0.4l83.3-75
		c1.1-1,1.7-2.3,1.8-3.7C585.2,405.6,585.2,405.3,585.1,404.9z M466.3,126.8c0-0.3,0-2.4,1.8-4.4c0.7-0.7,1.6-1.6,2.7-2.6
		c0.7-0.7,1.5-1.4,2.3-2.1c13.6-12.6,43.6-39.7,66.5-60.1l13.2-11.9c14-12.6,25-22.3,27.9-25c0.1,0.1,0.2,0.2,0.2,0.3
		c0.1,0.1,0.1,0.3,0.1,0.4v232.8L466.3,126.8z M581.1,275.5V399L469.9,275.5H581.1z M466.4,271.5V132.8l114.8,127.5v11.1H466.4z
		 M466.6,405.8c-0.2-0.2-0.3-0.4-0.3-0.6V277.6l114.5,127.1c0.2,0.3,0.4,0.6,0.4,1s-0.2,0.7-0.5,1l-83.2,75
		c-0.6,0.5-1.4,0.5-1.9-0.1l-29.2-32.4v-42.2h1.4L466.6,405.8z M465.7,126.9L465.7,126.9L465.7,126.9L465.7,126.9z M449.2,258.5
		l-85.3,76.8l-10.6-11.7V152.1L449.2,258.5z M462.3,273.1v171.5l-95.7-106.3l85.3-76.8L462.3,273.1z M319.2,114.1L319.2,114.1l0,0.7
		c0.4,0,0.7,0.2,0.9,0.4l29.2,32.4v42.7l-0.1,0.1V319L234.9,192c-0.2-0.3-0.4-0.6-0.4-1c0-0.4,0.2-0.7,0.5-0.9l83.2-75
		c0.3-0.3,0.6-0.3,0.9-0.3L319.2,114.1z M234.4,335.7v-11.1h114.4l0.4,0.5v138.2L234.4,335.7z M234.4,320.6v-123l110.7,123H234.4z
		 M349.2,469.2c0,0.3,0,2.4-1.8,4.4c-0.7,0.7-1.6,1.6-2.7,2.6l-2.3,2.1c-13.6,12.7-43.7,39.7-66.5,60.1l-13.2,11.9
		c-14,12.6-25,22.3-27.9,25c-0.1-0.1-0.2-0.2-0.2-0.3c-0.1-0.1-0.1-0.3-0.1-0.4V341.7L349.2,469.2z"/>
</g>
</svg>
