<?xml version="1.0" encoding="utf-8"?>
<!-- Generator: Adobe Illustrator 23.0.1, SVG Export Plug-In . SVG Version: 6.00 Build 0)  -->
<svg version="1.1" id="Layer_1" xmlns="http://www.w3.org/2000/svg" xmlns:xlink="http://www.w3.org/1999/xlink" x="0px" y="0px"
	 viewBox="0 0 160 160" style="enable-background:new 0 0 160 160;" xml:space="preserve">
<style type="text/css">
	.st0{fill:#FFFFFF;}
</style>
<g id="Primary_Logo_4_">
	<path class="st0" d="M33.3,129.6v27c0,0.4-0.3,0.7-0.7,0.7c-0.4,0-0.6-0.2-0.8-0.5l-20.5-25.2v24.9c0,0.4-0.3,0.7-0.7,0.7
		s-0.7-0.4-0.7-0.7v-27c0-0.4,0.3-0.7,0.7-0.7c0.3,0,0.5,0.2,0.7,0.4l0.1,0.1l20.6,25.2v-25c0-0.4,0.3-0.7,0.7-0.7
		S33.3,129.2,33.3,129.6z M71.9,133.1c2.6,2.7,4.1,6.3,4.1,10c0,3.7-1.5,7.3-4.1,10c-2.7,2.7-6.3,4.3-10,4.3c-3.8,0-7.3-1.5-10-4.2
		c-2.7-2.7-4.1-6.2-4.1-10c0-3.7,1.5-7.3,4.1-10c2.7-2.8,6.3-4.3,10-4.3C65.6,128.8,69.2,130.4,71.9,133.1z M70.8,134.1
		c-2.4-2.5-5.6-3.8-9-3.8c-3.4,0-6.6,1.4-9,3.8c-2.4,2.5-3.7,5.7-3.7,9c0,3.4,1.3,6.6,3.7,9c2.4,2.5,5.6,3.8,9,3.8
		c3.4,0,6.6-1.4,9-3.8c2.4-2.4,3.7-5.6,3.7-9C74.5,139.8,73.2,136.6,70.8,134.1z M110.3,128.8c-0.5,0-0.7,0.4-0.8,0.6l-10.4,25.4
		l-10.4-25.4c-0.1-0.2-0.2-0.6-0.8-0.6c-0.4,0-0.7,0.3-0.7,0.7c0,0.1,0,0.3,0.1,0.4c0,0,0,0.1,0,0.1l11,26.7
		c0.1,0.2,0.2,0.6,0.8,0.6c0.5,0,0.7-0.4,0.7-0.6l11-26.7c0,0,0-0.1,0-0.1c0-0.1,0.1-0.3,0.1-0.4C111,129.2,110.7,128.8,110.3,128.8
		z M150.2,143.1c0,3.7-1.5,7.3-4.1,10c-2.7,2.7-6.3,4.3-10,4.3c-3.8,0-7.3-1.5-10-4.2c-2.7-2.7-4.1-6.2-4.1-10c0-3.7,1.5-7.3,4.1-10
		c2.7-2.8,6.2-4.3,10-4.3c3.8,0,7.3,1.5,10,4.3C148.7,135.8,150.2,139.5,150.2,143.1z M145.1,134.1c-2.4-2.5-5.6-3.8-9-3.8
		c-3.4,0-6.6,1.4-9,3.8c-2.4,2.5-3.7,5.7-3.7,9c0,3.4,1.3,6.6,3.7,9c2.4,2.5,5.6,3.8,9,3.8c3.4,0,6.6-1.4,9-3.8
		c2.4-2.4,3.7-5.6,3.7-9C148.8,139.8,147.5,136.6,145.1,134.1z"/>
	<g>
		<path class="st0" d="M67.9,87.9c0.2,0.2,0.2,0.5,0,0.7l-19.3,17.5c-0.3,0.3-0.8,0.1-0.8-0.3V66.2c0-0.2,0.3-0.3,0.4-0.2L67.9,87.9
			z M48.3,59.8h19.1c0.3,0,0.4-0.3,0.2-0.5L48.2,37.8c-0.2-0.2-0.5-0.1-0.5,0.2v21.2C47.7,59.5,48,59.8,48.3,59.8z M67.4,61.2
			c-3.3,0-19.2,0-19.2,0c-0.3,0-0.5,0.2-0.5,0.5v1.5c0,0.3,0.1,0.6,0.3,0.8l19.5,21.6c0.2,0.2,0.5,0.1,0.5-0.2V61.8
			C68,61.5,67.8,61.2,67.4,61.2z M86.4,46.6L69.9,28.3c-0.1-0.2-0.4-0.1-0.4,0.2v30c0,0.3,0.1,0.6,0.3,0.8l1.2,1.3
			c0.2,0.2,0.5,0.2,0.7,0l14.7-13.3C86.6,47.1,86.6,46.8,86.4,46.6z M67.6,57.4c0.1,0.2,0.4,0.1,0.4-0.2v-30c0-0.3-0.1-0.6-0.3-0.8
			l-4-4.4c-0.2-0.2-0.6-0.3-0.8,0L48.4,35.1c-0.1,0.1-0.2,0.2-0.2,0.4v0.2c0,0.1,0.1,0.2,0.1,0.3L67.6,57.4z M88,48.4
			c-0.2-0.2-0.5-0.2-0.7,0L72.6,61.6c-0.2,0.2-0.2,0.5,0,0.7l16.6,18.4c0.1,0.2,0.4,0.1,0.4-0.2v-30c0-0.3-0.1-0.6-0.3-0.8L88,48.4z
			 M91.4,51.6c-0.1-0.2-0.4-0.1-0.4,0.2v30c0,0.3,0.1,0.6,0.3,0.8l4,4.4c0.2,0.2,0.6,0.3,0.8,0l14.6-13.1c0.2-0.2,0.3-0.6,0-0.8
			L91.4,51.6z M110.5,2.8L91.2,20.3c-0.2,0.2-0.2,0.5,0,0.7l19.7,21.9c0.1,0.2,0.4,0.1,0.4-0.2V3.1C111.3,2.7,110.8,2.5,110.5,2.8z
			 M110.7,49.1H91.6c-0.3,0-0.4,0.3-0.2,0.5l19.4,21.5c0.2,0.2,0.5,0.1,0.5-0.2V49.7C111.3,49.3,111,49.1,110.7,49.1z M91.5,23.2
			C91.3,23,91,23.2,91,23.4V47c0,0.3,0.3,0.6,0.6,0.6c3.3,0,19.2,0,19.2,0c0.3,0,0.5-0.2,0.5-0.5v-1.5c0-0.3-0.1-0.6-0.3-0.8
			L91.5,23.2z"/>
	</g>
</g>
</svg>
