<?xml version="1.0" encoding="utf-8"?>
<!-- Generator: Adobe Illustrator 23.0.1, SVG Export Plug-In . SVG Version: 6.00 Build 0)  -->
<svg version="1.1" id="Layer_1" xmlns="http://www.w3.org/2000/svg" xmlns:xlink="http://www.w3.org/1999/xlink" x="0px" y="0px"
	 viewBox="0 0 124 124" style="enable-background:new 0 0 124 124;" xml:space="preserve">
<style type="text/css">
	.st0{fill:#FFFFFF;}
</style>
<path class="st0" d="M99.8,84.8V3c0-0.5-0.3-0.9-0.7-1c-0.1,0-0.2,0-0.3,0h-0.2l-0.1,0.1c-0.1,0.1-7.7,6.9-14.5,13
	c-5.2,4.7-8.5,7.7-9.7,8.8c-0.7,0.7-0.6,1.4-0.6,1.6v29.9L44,22.5c-0.2-0.3-0.6-0.4-0.9-0.4c-0.3,0-0.5,0.1-0.7,0.3l-17.7,16
	c-0.1,0.1-0.2,0.3-0.3,0.4h0l0,0.1c0,0.1,0,0.2,0,0.3V121c0,0.5,0.3,0.9,0.7,1c0.1,0,0.2,0,0.3,0h0.2l0.1-0.1
	c0.1-0.1,7.8-6.9,14.5-13c5.2-4.7,8.5-7.7,9.7-8.8c0.7-0.7,0.6-1.4,0.6-1.6V68.7l29.7,33c0.4,0.5,1.2,0.5,1.6,0.1l17.7-16
	c0.2-0.2,0.4-0.5,0.4-0.8C99.8,84.9,99.8,84.9,99.8,84.8z M74.5,25.5c0-0.1,0-0.5,0.4-0.9c0.2-0.2,0.4-0.3,0.6-0.5
	c0.1-0.1,0.3-0.3,0.5-0.5c2.9-2.7,9.3-8.5,14.2-12.8l2.8-2.5c3-2.7,5.3-4.8,6-5.3c0,0,0,0,0,0.1c0,0,0,0.1,0,0.1v49.6L74.5,25.5z
	 M99,57.2v26.3L75.2,57.2H99z M74.5,56.3V26.8L99,54v2.4H74.5z M74.5,85c0,0-0.1-0.1-0.1-0.1V57.6l24.4,27.1
	c0.1,0.1,0.1,0.1,0.1,0.2s0,0.2-0.1,0.2l-17.7,16c-0.1,0.1-0.3,0.1-0.4,0l-6.2-6.9v-9h0.3L74.5,85z M74.3,25.5L74.3,25.5L74.3,25.5
	L74.3,25.5z M70.8,53.6L52.6,70l-2.3-2.5V30.9L70.8,53.6z M73.6,56.7v36.6L53.2,70.6l18.2-16.4L73.6,56.7z M43.1,22.8L43.1,22.8
	l0,0.1c0.1,0,0.1,0,0.2,0.1l6.2,6.9v9.1l0,0v27.4L25.1,39.4c-0.1-0.1-0.1-0.1-0.1-0.2c0-0.1,0-0.1,0.1-0.2l17.7-16
	c0.1-0.1,0.1-0.1,0.2-0.1L43.1,22.8z M25,70v-2.4h24.4l0.1,0.1v29.5L25,70z M25,66.8V40.6l23.6,26.2H25z M49.5,98.5
	c0,0.1,0,0.5-0.4,0.9c-0.2,0.2-0.4,0.3-0.6,0.5l-0.5,0.5c-2.9,2.7-9.3,8.5-14.2,12.8l-2.8,2.5c-3,2.7-5.3,4.8-6,5.3c0,0,0,0,0-0.1
	c0,0,0-0.1,0-0.1V71.3L49.5,98.5z"/>
</svg>
