<?xml version="1.0" encoding="utf-8"?>
<!-- Generator: Adobe Illustrator 23.0.1, SVG Export Plug-In . SVG Version: 6.00 Build 0)  -->
<svg version="1.1" id="Layer_1" xmlns="http://www.w3.org/2000/svg" xmlns:xlink="http://www.w3.org/1999/xlink" x="0px" y="0px"
	 viewBox="0 0 100 100" style="enable-background:new 0 0 100 100;" xml:space="preserve">
<style type="text/css">
	.st0{fill:#ACACAD;}
</style>
<path class="st0" d="M96.1,83.2L75.6,62.7c4-6.3,6.3-13.7,6.3-21.6c0-22.3-18.1-40.5-40.4-40.5S1,18.8,1,41.1
	c0,22.3,18.1,40.5,40.4,40.5c7.5,0,14.6-2.1,20.7-5.7l20.7,20.7C91.6,105.3,104.9,92,96.1,83.2z M41.4,69
	c-15.4,0-27.9-12.5-27.9-27.9s12.5-27.9,27.9-27.9c15.4,0,27.9,12.5,27.9,27.9S56.8,69,41.4,69z"/>
</svg>
