<?xml version="1.0" encoding="utf-8"?>
<!-- Generator: Adobe Illustrator 28.1.0, SVG Export Plug-In . SVG Version: 6.00 Build 0)  -->
<svg version="1.1" id="Layer_1" xmlns="http://www.w3.org/2000/svg" xmlns:xlink="http://www.w3.org/1999/xlink" x="0px" y="0px"
	 viewBox="0 0 135 135" style="enable-background:new 0 0 135 135;" xml:space="preserve">
<style type="text/css">
	.st0{fill:#FFFFFF;}
</style>
<g>
	<path id="twitter-icon" class="st0" d="M92,36.8c-1.8,0.8-3.7,1.3-5.7,1.6c2-1.2,3.6-3.1,4.3-5.4c-1.9,1.1-4,1.9-6.3,2.4
		c-1.8-1.9-4.4-3.1-7.2-3.1c-6.4,0-11,5.9-9.6,12.1C59.4,43.9,52.2,40,47.3,34c-2.6,4.4-1.3,10.2,3,13.1c-1.6-0.1-3.1-0.5-4.5-1.2
		c-0.1,4.6,3.2,8.8,7.9,9.8c-1.4,0.4-2.9,0.5-4.4,0.2c1.3,3.9,4.9,6.8,9.2,6.8c-4.1,3.2-9.4,4.7-14.6,4.1c4.4,2.8,9.5,4.4,15.1,4.4
		c18.3,0,28.6-15.4,28-29.3C89,40.5,90.6,38.8,92,36.8z"/>
</g>
<circle class="st0" cx="47.2" cy="35.9" r="20.2"/>
</svg>
