<?xml version="1.0" encoding="utf-8"?>
<!-- Generator: Adobe Illustrator 28.1.0, SVG Export Plug-In . SVG Version: 6.00 Build 0)  -->
<svg version="1.1" id="Layer_1" xmlns="http://www.w3.org/2000/svg" xmlns:xlink="http://www.w3.org/1999/xlink" x="0px" y="0px"
	 viewBox="0 0 612 792" style="enable-background:new 0 0 612 792;" xml:space="preserve">
<style type="text/css">
	.st0{fill:#FFFFFF;}
</style>
<path class="st0" d="M306,447.2c27.7,0,50.2,22.5,50.2,50.2c0,27.7-22.5,50.2-50.2,50.2s-50.2-22.5-50.2-50.2
	C255.8,469.7,278.3,447.2,306,447.2 M306,399.2c-54.3,0-98.2,44-98.2,98.2s44,98.2,98.2,98.2s98.2-44,98.2-98.2
	S360.3,399.2,306,399.2L306,399.2z"/>
<path class="st0" d="M457,385.1L457,385.1C457,385.1,457,385,457,385.1c-0.5-1-0.9-1.9-1.4-2.7C411,296.9,319.3,297.7,306,297.7
	s-105-0.8-149.6,84.6c-0.5,0.9-1,1.7-1.4,2.6c0,0,0,0.1,0,0.1l0,0c-1.5,3.4-2.4,7.2-2.4,11.2c0,15.2,12.4,27.6,27.6,27.6
	c10.4,0,19.5-5.8,24.2-14.3c5-7.9,37.6-54.7,101.7-54.7s96.6,46.9,101.7,54.7c4.7,8.5,13.8,14.3,24.2,14.3
	c15.2,0,27.6-12.4,27.6-27.6C459.4,392.3,458.6,388.5,457,385.1z"/>
<path class="st0" d="M543.1,332.8L543.1,332.8C543,332.8,543,332.8,543.1,332.8c-0.5-1-0.9-1.9-1.4-2.8
	C496.4,243.6,375.4,198.4,306,199.9c-69.4-1.5-190.4,43.7-235.6,130.1c-0.5,0.9-1,1.8-1.4,2.7c0,0,0,0.1,0,0.1l0,0
	c-1.5,3.4-2.4,7.2-2.4,11.2c0,15.2,12.4,27.6,27.6,27.6c10.1,0,19-5.4,23.8-13.6c4.8-6.9,75.2-103.8,188.1-102
	c112.9-1.8,183.2,95.1,188.1,102c4.8,8.1,13.6,13.6,23.8,13.6c15.2,0,27.6-12.4,27.6-27.6C545.4,340,544.6,336.3,543.1,332.8z"/>
</svg>
