<?xml version="1.0" encoding="utf-8"?>
<!-- Generator: Adobe Illustrator 28.1.0, SVG Export Plug-In . SVG Version: 6.00 Build 0)  -->
<svg version="1.1" id="Layer_1" xmlns="http://www.w3.org/2000/svg" xmlns:xlink="http://www.w3.org/1999/xlink" x="0px" y="0px"
	 viewBox="0 0 135 135" style="enable-background:new 0 0 135 135;" xml:space="preserve">
<style type="text/css">
	.st0{fill:#FFFFFF;}
</style>
<path class="st0" d="M70.3,58.7c3.1,0,5.6,2.5,5.6,5.6c0,3.1-2.5,5.6-5.6,5.6c-3.1,0-5.6-2.5-5.6-5.6C64.7,61.2,67.2,58.7,70.3,58.7
	 M70.3,53.4c-6,0-10.9,4.9-10.9,10.9s4.9,10.9,10.9,10.9c6,0,10.9-4.9,10.9-10.9S76.3,53.4,70.3,53.4L70.3,53.4z"/>
<path class="st0" d="M87,51.8L87,51.8C87,51.8,87,51.8,87,51.8c-0.1-0.1-0.1-0.2-0.2-0.3c-4.9-9.5-15.1-9.4-16.6-9.4
	c-1.5,0-11.7-0.1-16.6,9.4c-0.1,0.1-0.1,0.2-0.2,0.3c0,0,0,0,0,0l0,0c-0.2,0.4-0.3,0.8-0.3,1.2c0,1.7,1.4,3.1,3.1,3.1
	c1.2,0,2.2-0.6,2.7-1.6c0.6-0.9,4.2-6.1,11.3-6.1c7.1,0,10.7,5.2,11.3,6.1c0.5,0.9,1.5,1.6,2.7,1.6c1.7,0,3.1-1.4,3.1-3.1
	C87.3,52.6,87.2,52.2,87,51.8z"/>
<path class="st0" d="M96.5,46L96.5,46C96.5,46,96.5,46,96.5,46c-0.1-0.1-0.1-0.2-0.2-0.3c-5-9.6-18.4-14.6-26.1-14.4
	c-7.7-0.2-21.1,4.8-26.1,14.4C44.1,45.8,44,45.9,44,46c0,0,0,0,0,0l0,0c-0.2,0.4-0.3,0.8-0.3,1.2c0,1.7,1.4,3.1,3.1,3.1
	c1.1,0,2.1-0.6,2.6-1.5c0.5-0.8,8.3-11.5,20.9-11.3c12.5-0.2,20.3,10.6,20.9,11.3c0.5,0.9,1.5,1.5,2.6,1.5c1.7,0,3.1-1.4,3.1-3.1
	C96.8,46.8,96.7,46.4,96.5,46z"/>
</svg>
