<?xml version="1.0" encoding="utf-8"?>
<!-- Generator: Adobe Illustrator 23.0.1, SVG Export Plug-In . SVG Version: 6.00 Build 0)  -->
<svg version="1.1" id="Layer_1" xmlns="http://www.w3.org/2000/svg" xmlns:xlink="http://www.w3.org/1999/xlink" x="0px" y="0px"
	 viewBox="0 0 210 20" style="enable-background:new 0 0 210 20;" xml:space="preserve">
<style type="text/css">
	.st0{fill:#ACACAD;}
	.st1{fill:#FFFFFF;}
</style>
<g>
	<g>
		<path class="st0" d="M128.31,0v10.52c0,0.14-0.1,0.25-0.24,0.26c-0.13,0.01-0.25-0.09-0.27-0.22L126.41,0h-4.74v20h3.37V8.57
			c0-0.13,0.1-0.25,0.24-0.26c0.13-0.01,0.25,0.08,0.27,0.22L127.39,20h4.29V0H128.31z"/>
		<path class="st0" d="M134.06,0.68c-0.46,0.45-0.68,0.98-0.68,1.62v15.38c0,0.66,0.22,1.19,0.68,1.65
			c0.46,0.46,0.99,0.68,1.65,0.68h6.18V8.31h-4.17v2.95h0.54c0.14,0,0.26,0.11,0.26,0.26v4.85c0,0.14-0.11,0.26-0.26,0.26h-0.61
			c-0.57,0-0.89-0.32-0.89-0.88V4.25c0-0.56,0.33-0.88,0.89-0.88h0.61c0.14,0,0.26,0.11,0.26,0.26v2.92h3.37V0h-6.18
			C135.06,0,134.52,0.22,134.06,0.68z"/>
		<path class="st0" d="M183.04,20h6.69v-3.37h-3.06c-0.14,0-0.26-0.11-0.26-0.26v-4.8c0-0.14,0.11-0.26,0.26-0.26h3.06V8.45h-3.06
			c-0.14,0-0.26-0.11-0.26-0.26V3.63c0-0.14,0.11-0.26,0.26-0.26h3.06V0h-6.69V20z"/>
		<rect x="116.59" class="st0" width="3.37" height="20"/>
		<path class="st0" d="M166.21,15.69h1.73c0.13,0,0.25,0.1,0.26,0.24l0.32,4.08h3.36l-2.24-20h-5.1l-2.24,20h3.36l0.29-4.07
			C165.96,15.79,166.08,15.69,166.21,15.69z M166.75,4.8c0.01-0.13,0.12-0.24,0.25-0.24c0,0,0,0,0,0c0.13,0,0.24,0.1,0.26,0.24
			l0.65,7.8c0.01,0.07-0.02,0.14-0.07,0.19c-0.05,0.05-0.12,0.08-0.19,0.08h-1.19c-0.07,0-0.14-0.03-0.19-0.08
			c-0.05-0.05-0.07-0.12-0.07-0.19L166.75,4.8z"/>
		<path class="st0" d="M181.33,2.3c0-0.64-0.22-1.16-0.68-1.62C180.2,0.22,179.67,0,179.03,0h-6.21v20h6.21
			c0.62,0,1.16-0.19,1.62-0.58c0.45-0.38,0.67-0.85,0.67-1.43V2.3z M177.96,15.92c0,0.44-0.27,0.71-0.71,0.71h-0.79
			c-0.14,0-0.26-0.11-0.26-0.26V3.63c0-0.14,0.11-0.26,0.26-0.26h0.74c0.48,0,0.77,0.29,0.77,0.77V15.92z"/>
		<path class="st0" d="M155.09,20l6.69-0.03v-3.35h-3.06c-0.14,0-0.26-0.11-0.26-0.26v-4.8c0-0.14,0.11-0.26,0.26-0.26h3.06V8.45
			h-3.06c-0.14,0-0.26-0.11-0.26-0.26V3.63c0-0.14,0.11-0.26,0.26-0.26h3.06V0h-6.69V20z"/>
		<path class="st0" d="M199.6,20v-6.84c0-0.46-0.21-0.91-0.61-1.33c-0.41-0.42-0.81-0.66-1.2-0.69c-0.13-0.01-0.23-0.12-0.24-0.25
			c0-0.13,0.1-0.24,0.23-0.26c0.43-0.05,0.84-0.28,1.23-0.69c0.39-0.41,0.58-0.84,0.58-1.33V2.3c0-0.64-0.22-1.16-0.68-1.62
			c-0.46-0.46-1-0.68-1.65-0.68h-6.21v20h3.37v-7.43c0-0.14,0.11-0.26,0.26-0.26h0.8c0.46,0,0.73,0.31,0.73,0.82V20H199.6z
			 M195.5,9.45h-0.8c-0.14,0-0.26-0.11-0.26-0.26V3.63c0-0.14,0.11-0.26,0.26-0.26h0.74c0.5,0,0.79,0.29,0.79,0.77v4.59
			C196.23,9.18,195.95,9.45,195.5,9.45z"/>
		<path class="st0" d="M148,0v20h6.1v-3.37h-2.47c-0.14,0-0.26-0.11-0.26-0.26V0H148z"/>
		<path class="st0" d="M61.86,20V0h-5.72l-0.83,10.18c-0.01,0.13-0.12,0.24-0.26,0.24h0c-0.13,0-0.24-0.1-0.26-0.23L53.94,0h-5.72
			v20h3.37V7.35c0-0.14,0.11-0.25,0.24-0.26c0.13-0.02,0.25,0.09,0.27,0.23L53.47,20h3.23l1.28-12.74c0.01-0.14,0.11-0.25,0.27-0.23
			c0.14,0.01,0.24,0.12,0.24,0.26V20H61.86z"/>
		<path class="st0" d="M114.97,20v-6.84c0-0.46-0.2-0.91-0.61-1.33c-0.41-0.42-0.81-0.66-1.2-0.69c-0.13-0.01-0.23-0.12-0.23-0.25
			c0-0.13,0.1-0.24,0.23-0.26c0.43-0.05,0.84-0.28,1.23-0.69c0.39-0.41,0.58-0.84,0.58-1.33V2.3c0-0.64-0.22-1.16-0.68-1.62
			c-0.46-0.46-1-0.68-1.65-0.68h-6.21v20h3.37v-7.43c0-0.14,0.11-0.26,0.26-0.26h0.8c0.46,0,0.73,0.31,0.73,0.82V20H114.97z
			 M110.87,9.45h-0.8c-0.14,0-0.26-0.11-0.26-0.26V3.63c0-0.14,0.11-0.26,0.26-0.26h0.74c0.5,0,0.79,0.29,0.79,0.77v4.59
			C111.6,9.18,111.32,9.45,110.87,9.45z"/>
		<path class="st0" d="M40.19,20h6.69v-3.37h-3.06c-0.14,0-0.26-0.11-0.26-0.26v-4.8c0-0.14,0.11-0.26,0.26-0.26h3.06V8.45h-3.06
			c-0.14,0-0.26-0.11-0.26-0.26V3.63c0-0.14,0.11-0.26,0.26-0.26h3.06V0h-6.69V20z"/>
		<path class="st0" d="M209.05,19.32c0.45-0.46,0.68-0.98,0.68-1.62V8.31h-4.88c-0.14,0-0.26-0.11-0.26-0.26V3.63
			c0-0.14,0.11-0.26,0.26-0.26h1.25c0.14,0,0.26,0.11,0.26,0.26v2.92h3.37V0h-6.21c-0.64,0-1.17,0.22-1.62,0.68
			c-0.46,0.45-0.68,0.98-0.68,1.62v9.39h4.88c0.14,0,0.26,0.11,0.26,0.26v4.43c0,0.14-0.11,0.26-0.26,0.26h-1.25
			c-0.14,0-0.26-0.11-0.26-0.26v-2.95h-3.37V20h6.21C208.07,20,208.6,19.78,209.05,19.32z"/>
		<path class="st0" d="M72.1,2.3c0-0.64-0.22-1.17-0.68-1.62C70.97,0.22,70.43,0,69.78,0h-6.21v20h3.37v-5.87
			c0-0.14,0.11-0.26,0.26-0.26h2.54c0.64,0,1.19-0.22,1.66-0.67c0.47-0.45,0.7-0.99,0.7-1.66V2.3z M68.73,10.3
			c0,0.45-0.27,0.71-0.73,0.71h-0.8c-0.14,0-0.26-0.11-0.26-0.26V3.63c0-0.14,0.11-0.26,0.26-0.26h0.74c0.49,0,0.79,0.29,0.79,0.77
			V10.3z"/>
		<path class="st0" d="M79.59,0h-3.89c-0.65,0-1.19,0.22-1.65,0.68c-0.46,0.46-0.68,0.99-0.68,1.62v15.69
			c0,1.37,0.74,2.01,2.33,2.01h3.89c0.62,0,1.16-0.19,1.62-0.58c0.45-0.38,0.67-0.85,0.67-1.43V2.3c0-0.64-0.22-1.16-0.68-1.62
			C80.76,0.22,80.23,0,79.59,0z M78.52,15.92c0,0.44-0.27,0.71-0.72,0.71h-0.29c-0.47,0-0.75-0.27-0.75-0.71V4.14
			c0-0.48,0.29-0.77,0.78-0.77h0.2c0.49,0,0.78,0.29,0.78,0.77V15.92z"/>
		<path class="st0" d="M92.84,12.26C92.84,12.26,92.84,12.26,92.84,12.26c-0.14,0-0.25-0.11-0.26-0.24L91.86,0h-3.69l-0.61,11.93
			c-0.01,0.14-0.12,0.24-0.26,0.24c0,0,0,0,0,0c-0.14,0-0.25-0.11-0.26-0.24L86.39,0h-3.65l1.72,20h4.58l0.75-10.17
			c0.01-0.13,0.12-0.24,0.26-0.24h0c0.13,0,0.25,0.1,0.26,0.24L91.07,20h4.55l1.72-20h-3.65L93.1,12.01
			C93.09,12.15,92.98,12.26,92.84,12.26z"/>
		<path class="st0" d="M98.41,20h6.69v-3.37h-3.06c-0.14,0-0.26-0.11-0.26-0.26v-4.8c0-0.14,0.11-0.26,0.26-0.26h3.06V8.45h-3.06
			c-0.14,0-0.26-0.11-0.26-0.26V3.63c0-0.14,0.11-0.26,0.26-0.26h3.06V0h-6.69V20z"/>
	</g>
	<g>
		<path class="st1" d="M34.09,20V0h-5.72l-0.83,10.18c-0.01,0.13-0.12,0.24-0.26,0.24h0c-0.13,0-0.24-0.1-0.26-0.23L26.16,0h-5.72
			v20h3.37V7.35c0-0.14,0.11-0.25,0.24-0.26c0.13-0.02,0.25,0.09,0.27,0.23L25.69,20h3.23L30.2,7.26c0.01-0.14,0.12-0.24,0.27-0.23
			c0.14,0.01,0.24,0.12,0.24,0.26V20H34.09z"/>
		<path class="st1" d="M18.82,20v-6.84c0-0.46-0.2-0.91-0.61-1.33c-0.41-0.42-0.81-0.66-1.2-0.69c-0.13-0.01-0.23-0.12-0.23-0.25
			c0-0.13,0.1-0.24,0.23-0.26c0.43-0.05,0.84-0.28,1.23-0.69c0.39-0.41,0.58-0.84,0.58-1.33V2.3c0-0.64-0.22-1.16-0.68-1.62
			C17.69,0.22,17.15,0,16.5,0h-6.21v20h3.37v-7.43c0-0.14,0.11-0.26,0.26-0.26h0.8c0.46,0,0.73,0.31,0.73,0.82V20H18.82z
			 M14.72,9.45h-0.8c-0.14,0-0.26-0.11-0.26-0.26V3.63c0-0.14,0.11-0.26,0.26-0.26h0.74c0.5,0,0.79,0.29,0.79,0.77v4.59
			C15.45,9.18,15.17,9.45,14.72,9.45z"/>
		<path class="st1" d="M0.95,0.68C0.49,1.13,0.27,1.66,0.27,2.3V17.7c0,0.64,0.22,1.16,0.68,1.62C1.4,19.78,1.93,20,2.57,20h3.92
			c0.65,0,1.18-0.23,1.63-0.69c0.45-0.46,0.67-1,0.67-1.64v-4.96H5.4v3.66c0,0.14-0.11,0.26-0.26,0.26H4.52
			c-0.56,0-0.88-0.32-0.88-0.88V4.25c0-0.56,0.32-0.88,0.88-0.88h0.62c0.14,0,0.26,0.11,0.26,0.26v3.4h3.37V0H2.57
			C1.93,0,1.4,0.22,0.95,0.68z"/>
	</g>
</g>
</svg>
