<?xml version="1.0" encoding="utf-8"?>
<!-- Generator: Adobe Illustrator 23.0.1, SVG Export Plug-In . SVG Version: 6.00 Build 0)  -->
<svg version="1.1" id="Layer_1" xmlns="http://www.w3.org/2000/svg" xmlns:xlink="http://www.w3.org/1999/xlink" x="0px" y="0px"
	 viewBox="0 0 42 34" style="enable-background:new 0 0 42 34;" xml:space="preserve">
<style type="text/css">
	.st0{fill:#FFFFFF;}
</style>
<path class="st0" d="M40,0H2C0.9,0,0,0.9,0,2s0.9,2,2,2h38c1.1,0,2-0.9,2-2S41.1,0,40,0z"/>
<path class="st0" d="M35,15H2c-1.1,0-2,0.9-2,2s0.9,2,2,2h33c1.1,0,2-0.9,2-2S36.1,15,35,15z"/>
<path class="st0" d="M25.1,30H2c-1.1,0-2,0.9-2,2c0,1.1,0.9,2,2,2h23.1c1.1,0,2-0.9,2-2C27,30.9,26.2,30,25.1,30z"/>
</svg>
