<?xml version="1.0" encoding="utf-8"?>
<!-- Generator: Adobe Illustrator 23.0.1, SVG Export Plug-In . SVG Version: 6.00 Build 0)  -->
<svg version="1.1" id="Layer_1" xmlns="http://www.w3.org/2000/svg" xmlns:xlink="http://www.w3.org/1999/xlink" x="0px" y="0px"
	 viewBox="0 0 270 270" style="enable-background:new 0 0 270 270;" xml:space="preserve">
<g>
	<path d="M0,269.5v0.5h0.5C0.2,270,0,269.8,0,269.5z"/>
	<path d="M269.5,270h0.5v-0.5C270,269.8,269.8,270,269.5,270z"/>
	<path d="M0.5,0H0v0.5C0,0.2,0.2,0,0.5,0z"/>
	<path d="M269.5,0c0.3,0,0.5,0.2,0.5,0.5V0H269.5z"/>
	<path d="M269.5,47c-0.3,0-0.5-0.2-0.5-0.5V1h-45.5c-0.3,0-0.5-0.2-0.5-0.5s0.2-0.5,0.5-0.5h-177C46.8,0,47,0.2,47,0.5
		S46.8,1,46.5,1H1v45.5C1,46.8,0.8,47,0.5,47S0,46.8,0,46.5v177c0-0.3,0.2-0.5,0.5-0.5s0.5,0.2,0.5,0.5V269h45.5
		c0.3,0,0.5,0.2,0.5,0.5s-0.2,0.5-0.5,0.5h177c-0.3,0-0.5-0.2-0.5-0.5s0.2-0.5,0.5-0.5H269v-45.5c0-0.3,0.2-0.5,0.5-0.5
		s0.5,0.2,0.5,0.5v-177C270,46.8,269.8,47,269.5,47z M183,137.5h-45.5V183c0,0.3-0.2,0.5-0.5,0.5s-0.5-0.2-0.5-0.5v-45.5H91
		c-0.3,0-0.5-0.2-0.5-0.5s0.2-0.5,0.5-0.5h45.5V91c0-0.3,0.2-0.5,0.5-0.5s0.5,0.2,0.5,0.5v45.5H183c0.3,0,0.5,0.2,0.5,0.5
		S183.3,137.5,183,137.5z"/>
</g>
</svg>
