<?xml version="1.0" encoding="utf-8"?>
<!-- Generator: Adobe Illustrator 23.0.1, SVG Export Plug-In . SVG Version: 6.00 Build 0)  -->
<svg version="1.1" id="Layer_1" xmlns="http://www.w3.org/2000/svg" xmlns:xlink="http://www.w3.org/1999/xlink" x="0px" y="0px"
	 viewBox="0 0 135 135" style="enable-background:new 0 0 135 135;" xml:space="preserve">
<style type="text/css">
	.st0{fill:#FFFFFF;}
</style>
<g>
	<g>
		<path class="st0" d="M77.9,33H58.1c-5.4,0-9.7,4.4-9.7,9.7v19.8c0,5.4,4.4,9.7,9.7,9.7h19.8c5.4,0,9.7-4.4,9.7-9.7V42.7
			C87.6,37.3,83.3,33,77.9,33z M84,62.5c0,3.4-2.7,6.1-6.1,6.1H58.1c-3.4,0-6.1-2.7-6.1-6.1V42.7c0-3.4,2.7-6.1,6.1-6.1h19.8
			c3.4,0,6.1,2.7,6.1,6.1V62.5z"/>
		<path class="st0" d="M68,42.7c-5.5,0-9.9,4.5-9.9,9.9s4.5,9.9,9.9,9.9s9.9-4.5,9.9-9.9S73.5,42.7,68,42.7z M68,58.9
			c-3.5,0-6.3-2.8-6.3-6.3c0-3.5,2.8-6.3,6.3-6.3c3.5,0,6.3,2.8,6.3,6.3C74.3,56.1,71.5,58.9,68,58.9z"/>
		<path class="st0" d="M78.6,39.9c-1.1,0-2.1,0.9-2.1,2.1s0.9,2.1,2.1,2.1c1.1,0,2.1-0.9,2.1-2.1S79.8,39.9,78.6,39.9z"/>
	</g>
</g>
</svg>
